<svg preserveAspectRatio="xMidYMid meet" data-bbox="16.37 16.888 313.63 67.926" viewBox="0 0 355 101" xmlns:xlink="http://www.w3.org/1999/xlink" xmlns="http://www.w3.org/2000/svg" data-type="ugc" role="presentation" aria-hidden="true" aria-labelledby="svgcid--ia11kn-cixk3e"><title id="svgcid--ia11kn-cixk3e"></title>
    <g>
        <defs>
            <linearGradient gradientUnits="userSpaceOnUse" gradientTransform="translate(-624 337)" y2="-319.67" x2="954.11" y1="-274.32" x1="643.81" id="svgcid-qfwzuwbrb000">
                <stop stop-color="#b2b2b2" offset=".05"></stop>
                <stop stop-color="#e5e4e4" offset=".34"></stop>
                <stop stop-color="#f1f1f1" offset=".98"></stop>
            </linearGradient>
            <linearGradient xlink:href="#svgcid-qfwzuwbrb000" y2="77.93" x2="258.59" y1="77.93" x1="128.46" id="svgcid-qp7z7u-k5j4ws"></linearGradient>
        </defs>
        <g>
            <path d="M204 54.8l6.54-7.8a20.29 20.29 0 0 0 12.62 5.12c2.23 0 3.36-.92 3.36-2.32s-1.47-2.1-5.19-3.57c-6-2.39-10.64-5-10.64-11.07 0-7.57 6.09-13.46 16.53-13.46 6.87 0 13 2.53 16.4 5.33l-6.38 8C234 32.58 230 31 226.52 31c-2.18 0-3.29.84-3.29 2.17s1.33 2 5.26 3.58c5.46 2.17 10.57 4.76 10.57 11.07 0 7.29-5.46 13.6-16.4 13.6-7.21-.03-14.15-2.55-18.66-6.62z" fill="url(#svgcid-qfwzuwbrb000)"></path>
            <path d="M241.28 46.45a18.92 18.92 0 0 1 18.85-18.61c9.84 0 15.77 6.46 15.77 14.88A19 19 0 0 1 257 61.39c-9.79 0-15.72-6.47-15.72-14.94zm23.83-3.32c0-3.62-2.25-5.93-5.57-5.93-4.45 0-7.47 4.68-7.47 8.83 0 3.68 2.24 6 5.57 6 4.44-.03 7.47-4.69 7.47-8.9z" fill="url(#svgcid-qfwzuwbrb000)"></path>
            <path d="M284.25 37.61h-3.79l2.43-9.07h3.74l.18-.65c2-7.82 6.4-11 13.75-11a22 22 0 0 1 7.17 1.11l-2.07 7.88a12.71 12.71 0 0 0-3.8-.71c-2.31 0-3.49 1-4 3l-.18.53h7.23l-2.37 8.89h-7l-6.22 23H278z" fill="url(#svgcid-qfwzuwbrb000)"></path>
            <path d="M305 53.68a18.17 18.17 0 0 1 .59-4.21l3.2-11.86H305l2.42-9.07h3.79l2.19-8.12h11.27l-2.19 8.12H330l-2.43 9.07h-7.47l-2.76 10.09a9.6 9.6 0 0 0-.3 1.94c0 1.31.78 2 2.55 2a12.68 12.68 0 0 0 4.27-.89l-2.49 9.37a20.07 20.07 0 0 1-6.64 1.13c-6.52.02-9.73-2.83-9.73-7.57z" fill="url(#svgcid-qfwzuwbrb000)"></path>
            <path d="M204 54.8l6.54-7.8a20.29 20.29 0 0 0 12.62 5.12c2.23 0 3.36-.92 3.36-2.32s-1.47-2.1-5.19-3.57c-6-2.39-10.64-5-10.64-11.07 0-7.57 6.09-13.46 16.53-13.46 6.87 0 13 2.53 16.4 5.33l-6.38 8C234 32.58 230 31 226.52 31c-2.18 0-3.29.84-3.29 2.17s1.33 2 5.26 3.58c5.46 2.17 10.57 4.76 10.57 11.07 0 7.29-5.46 13.6-16.4 13.6-7.21-.03-14.15-2.55-18.66-6.62z" fill="url(#svgcid-qfwzuwbrb000)"></path>
            <path d="M241.28 46.45a18.92 18.92 0 0 1 18.85-18.61c9.84 0 15.77 6.46 15.77 14.88A19 19 0 0 1 257 61.39c-9.79 0-15.72-6.47-15.72-14.94zm23.83-3.32c0-3.62-2.25-5.93-5.57-5.93-4.45 0-7.47 4.68-7.47 8.83 0 3.68 2.24 6 5.57 6 4.44-.03 7.47-4.69 7.47-8.9z" fill="url(#svgcid-qfwzuwbrb000)"></path>
            <path d="M284.25 37.61h-3.79l2.43-9.07h3.74l.18-.65c2-7.82 6.4-11 13.75-11a22 22 0 0 1 7.17 1.11l-2.07 7.88a12.71 12.71 0 0 0-3.8-.71c-2.31 0-3.49 1-4 3l-.18.53h7.23l-2.37 8.89h-7l-6.22 23H278z" fill="url(#svgcid-qfwzuwbrb000)"></path>
            <path d="M305 53.68a18.17 18.17 0 0 1 .59-4.21l3.2-11.86H305l2.42-9.07h3.79l2.19-8.12h11.27l-2.19 8.12H330l-2.43 9.07h-7.47l-2.76 10.09a9.6 9.6 0 0 0-.3 1.94c0 1.31.78 2 2.55 2a12.68 12.68 0 0 0 4.27-.89l-2.49 9.37a20.07 20.07 0 0 1-6.64 1.13c-6.52.02-9.73-2.83-9.73-7.57z" fill="url(#svgcid-qfwzuwbrb000)"></path>
            <path d="M204 54.8l6.54-7.8a20.29 20.29 0 0 0 12.62 5.12c2.23 0 3.36-.92 3.36-2.32s-1.47-2.1-5.19-3.57c-6-2.39-10.64-5-10.64-11.07 0-7.57 6.09-13.46 16.53-13.46 6.87 0 13 2.53 16.4 5.33l-6.38 8C234 32.58 230 31 226.52 31c-2.18 0-3.29.84-3.29 2.17s1.33 2 5.26 3.58c5.46 2.17 10.57 4.76 10.57 11.07 0 7.29-5.46 13.6-16.4 13.6-7.21-.03-14.15-2.55-18.66-6.62z" fill="url(#svgcid-qfwzuwbrb000)"></path>
            <path d="M241.28 46.45a18.92 18.92 0 0 1 18.85-18.61c9.84 0 15.77 6.46 15.77 14.88A19 19 0 0 1 257 61.39c-9.79 0-15.72-6.47-15.72-14.94zm23.83-3.32c0-3.62-2.25-5.93-5.57-5.93-4.45 0-7.47 4.68-7.47 8.83 0 3.68 2.24 6 5.57 6 4.44-.03 7.47-4.69 7.47-8.9z" fill="url(#svgcid-qfwzuwbrb000)"></path>
            <path d="M284.25 37.61h-3.79l2.43-9.07h3.74l.18-.65c2-7.82 6.4-11 13.75-11a22 22 0 0 1 7.17 1.11l-2.07 7.88a12.71 12.71 0 0 0-3.8-.71c-2.31 0-3.49 1-4 3l-.18.53h7.23l-2.37 8.89h-7l-6.22 23H278z" fill="url(#svgcid-qfwzuwbrb000)"></path>
            <path d="M305 53.68a18.17 18.17 0 0 1 .59-4.21l3.2-11.86H305l2.42-9.07h3.79l2.19-8.12h11.27l-2.19 8.12H330l-2.43 9.07h-7.47l-2.76 10.09a9.6 9.6 0 0 0-.3 1.94c0 1.31.78 2 2.55 2a12.68 12.68 0 0 0 4.27-.89l-2.49 9.37a20.07 20.07 0 0 1-6.64 1.13c-6.52.02-9.73-2.83-9.73-7.57z" fill="url(#svgcid-qfwzuwbrb000)"></path>
            <path d="M16.37 45.36v-1.63h11.45v1c0 3.16 1.86 5.19 4.68 5.19s4.55-2 4.55-5.19V18.26h11.44v27.1c0 8.93-6.44 15.17-16 15.17s-16.12-6.22-16.12-15.17z" fill="url(#svgcid-qfwzuwbrb000)"></path>
            <path d="M87.9 43.29a20.44 20.44 0 0 1-.22 2.9H64.06c.72 3.65 3 5.53 6.49 5.53a6.4 6.4 0 0 0 5.76-3h10.9C85 56 78.54 60.53 70.55 60.53c-9.92 0-17.27-7.25-17.27-17s7.29-16.92 17.27-16.92c10.26 0 17.36 7.31 17.36 16.65zm-23.64-3.17h12.86a6.4 6.4 0 0 0-6.57-4.89 6.13 6.13 0 0 0-6.29 4.89z" fill="url(#svgcid-qfwzuwbrb000)"></path>
            <path d="M141.69 39.54v20h-11V40.9c0-3.33-1.22-4.93-3.54-4.93-3 0-4.56 2.08-4.56 6.08v17.44H112V40.9c0-3.23-1.21-4.93-3.5-4.93-3 0-4.6 2.13-4.6 6.08v17.44h-11V27.68h7.7l1.57 3.42a12.25 12.25 0 0 1 9.29-4.36 10.72 10.72 0 0 1 9.13 4.68 12.39 12.39 0 0 1 9.77-4.68c6.8 0 11.33 5.31 11.33 12.8z" fill="url(#svgcid-qfwzuwbrb000)"></path>
            <path d="M181 43.29a20.44 20.44 0 0 1-.22 2.9h-23.64c.72 3.65 3 5.53 6.49 5.53a6.41 6.41 0 0 0 5.76-3h10.9c-2.24 7.26-8.68 11.79-16.66 11.79-9.92 0-17.27-7.25-17.27-17s7.29-16.92 17.27-16.92C173.89 26.64 181 34 181 43.29zm-23.65-3.17h12.86a6.38 6.38 0 0 0-6.56-4.89 6.14 6.14 0 0 0-6.32 4.89z" fill="url(#svgcid-qfwzuwbrb000)"></path>
            <path d="M206.69 27.53v10h-4.27c-3.86 0-5.49 1.71-5.49 5.76v16.2H186V27.68h7.34l1.66 3.54c2.24-2.6 5-3.69 8.77-3.69z" fill="url(#svgcid-qfwzuwbrb000)"></path>
            <path d="M16.37 45.36v-1.63h11.45v1c0 3.16 1.86 5.19 4.68 5.19s4.55-2 4.55-5.19V18.26h11.44v27.1c0 8.93-6.44 15.17-16 15.17s-16.12-6.22-16.12-15.17z" fill="url(#svgcid-qfwzuwbrb000)"></path>
            <path d="M87.9 43.29a20.44 20.44 0 0 1-.22 2.9H64.06c.72 3.65 3 5.53 6.49 5.53a6.4 6.4 0 0 0 5.76-3h10.9C85 56 78.54 60.53 70.55 60.53c-9.92 0-17.27-7.25-17.27-17s7.29-16.92 17.27-16.92c10.26 0 17.36 7.31 17.36 16.65zm-23.64-3.17h12.86a6.4 6.4 0 0 0-6.57-4.89 6.13 6.13 0 0 0-6.29 4.89z" fill="url(#svgcid-qfwzuwbrb000)"></path>
            <path d="M141.69 39.54v20h-11V40.9c0-3.33-1.22-4.93-3.54-4.93-3 0-4.56 2.08-4.56 6.08v17.44H112V40.9c0-3.23-1.21-4.93-3.5-4.93-3 0-4.6 2.13-4.6 6.08v17.44h-11V27.68h7.7l1.57 3.42a12.25 12.25 0 0 1 9.29-4.36 10.72 10.72 0 0 1 9.13 4.68 12.39 12.39 0 0 1 9.77-4.68c6.8 0 11.33 5.31 11.33 12.8z" fill="url(#svgcid-qfwzuwbrb000)"></path>
            <path d="M181 43.29a20.44 20.44 0 0 1-.22 2.9h-23.64c.72 3.65 3 5.53 6.49 5.53a6.41 6.41 0 0 0 5.76-3h10.9c-2.24 7.26-8.68 11.79-16.66 11.79-9.92 0-17.27-7.25-17.27-17s7.29-16.92 17.27-16.92C173.89 26.64 181 34 181 43.29zm-23.65-3.17h12.86a6.38 6.38 0 0 0-6.56-4.89 6.14 6.14 0 0 0-6.32 4.89z" fill="url(#svgcid-qfwzuwbrb000)"></path>
            <path d="M206.69 27.53v10h-4.27c-3.86 0-5.49 1.71-5.49 5.76v16.2H186V27.68h7.34l1.66 3.54c2.24-2.6 5-3.69 8.77-3.69z" fill="url(#svgcid-qfwzuwbrb000)"></path>
            <path d="M16.37 45.36v-1.63h11.45v1c0 3.16 1.86 5.19 4.68 5.19s4.55-2 4.55-5.19V18.26h11.44v27.1c0 8.93-6.44 15.17-16 15.17s-16.12-6.22-16.12-15.17z" fill="url(#svgcid-qfwzuwbrb000)"></path>
            <path d="M87.9 43.29a20.44 20.44 0 0 1-.22 2.9H64.06c.72 3.65 3 5.53 6.49 5.53a6.4 6.4 0 0 0 5.76-3h10.9C85 56 78.54 60.53 70.55 60.53c-9.92 0-17.27-7.25-17.27-17s7.29-16.92 17.27-16.92c10.26 0 17.36 7.31 17.36 16.65zm-23.64-3.17h12.86a6.4 6.4 0 0 0-6.57-4.89 6.13 6.13 0 0 0-6.29 4.89z" fill="url(#svgcid-qfwzuwbrb000)"></path>
            <path d="M141.69 39.54v20h-11V40.9c0-3.33-1.22-4.93-3.54-4.93-3 0-4.56 2.08-4.56 6.08v17.44H112V40.9c0-3.23-1.21-4.93-3.5-4.93-3 0-4.6 2.13-4.6 6.08v17.44h-11V27.68h7.7l1.57 3.42a12.25 12.25 0 0 1 9.29-4.36 10.72 10.72 0 0 1 9.13 4.68 12.39 12.39 0 0 1 9.77-4.68c6.8 0 11.33 5.31 11.33 12.8z" fill="url(#svgcid-qfwzuwbrb000)"></path>
            <path d="M181 43.29a20.44 20.44 0 0 1-.22 2.9h-23.64c.72 3.65 3 5.53 6.49 5.53a6.41 6.41 0 0 0 5.76-3h10.9c-2.24 7.26-8.68 11.79-16.66 11.79-9.92 0-17.27-7.25-17.27-17s7.29-16.92 17.27-16.92C173.89 26.64 181 34 181 43.29zm-23.65-3.17h12.86a6.38 6.38 0 0 0-6.56-4.89 6.14 6.14 0 0 0-6.32 4.89z" fill="url(#svgcid-qfwzuwbrb000)"></path>
            <path d="M206.69 27.53v10h-4.27c-3.86 0-5.49 1.71-5.49 5.76v16.2H186V27.68h7.34l1.66 3.54c2.24-2.6 5-3.69 8.77-3.69z" fill="url(#svgcid-qfwzuwbrb000)"></path>
            <path d="M134.81 84.52h-2.27V73.76h-4.08v-2.09h10.43v2.09h-4.08zm6.76-2.23a2.76 2.76 0 0 0 1.83.64 3.22 3.22 0 0 0 1.44-.3 4.51 4.51 0 0 0 1.19-.86l1.3 1.16a5.33 5.33 0 0 1-1.66 1.32 5 5 0 0 1-2.3.49 5.29 5.29 0 0 1-2-.36 5 5 0 0 1-1.58-1 4.9 4.9 0 0 1-1.05-1.59 5.3 5.3 0 0 1-.39-2.07 5.54 5.54 0 0 1 .35-2 5 5 0 0 1 1-1.61 4.78 4.78 0 0 1 1.5-1.09 4.41 4.41 0 0 1 1.91-.4 4.63 4.63 0 0 1 2 .42 4.18 4.18 0 0 1 1.45 1.14 5.1 5.1 0 0 1 .87 1.67 7 7 0 0 1 .29 2 2.71 2.71 0 0 1 0 .29v.32h-7.13a3 3 0 0 0 .98 1.83zm4-3.29a4 4 0 0 0-.24-1 2.5 2.5 0 0 0-.49-.81 2.25 2.25 0 0 0-.75-.54 2.2 2.2 0 0 0-1-.2 2.26 2.26 0 0 0-1.7.7 3.19 3.19 0 0 0-.79 1.85zm11.27 5.24a4.87 4.87 0 0 1-2.33.5 4.93 4.93 0 0 1-3.59-1.47 4.91 4.91 0 0 1-1.06-1.6 5.24 5.24 0 0 1 0-3.92 5 5 0 0 1 1.06-1.62 4.91 4.91 0 0 1 1.6-1.1 5.57 5.57 0 0 1 4.29.06 5.25 5.25 0 0 1 1.59 1.21l-1.4 1.49a5.25 5.25 0 0 0-1.1-.88 2.81 2.81 0 0 0-1.42-.34 2.63 2.63 0 0 0-1.12.25 2.78 2.78 0 0 0-.88.67 3.1 3.1 0 0 0-.58 1 3.46 3.46 0 0 0-.21 1.21 3.53 3.53 0 0 0 .21 1.23 2.92 2.92 0 0 0 .6 1 2.84 2.84 0 0 0 .92.67 2.78 2.78 0 0 0 1.17.24 2.83 2.83 0 0 0 1.39-.33 5.67 5.67 0 0 0 1.13-.88l1.34 1.33a6.44 6.44 0 0 1-1.61 1.28zm5.89.28h-2.24v-13.4h2.24v5.23a8.38 8.38 0 0 1 .52-.66 3.53 3.53 0 0 1 .66-.54 3.3 3.3 0 0 1 .83-.38 3.72 3.72 0 0 1 3.56.87 3.92 3.92 0 0 1 .89 2.71v6.17H167V79a2.56 2.56 0 0 0-.54-1.75 1.92 1.92 0 0 0-1.52-.61 2.08 2.08 0 0 0-1.57.63 2.45 2.45 0 0 0-.6 1.76zm14.56-8.83a1.26 1.26 0 0 0 .47.52 3.77 3.77 0 0 0 .94.44c.39.13.9.27 1.51.42a13.72 13.72 0 0 1 1.8.57 4.64 4.64 0 0 1 1.3.76 3.07 3.07 0 0 1 .78 1 3.33 3.33 0 0 1 .26 1.4 3.83 3.83 0 0 1-.33 1.63 3.54 3.54 0 0 1-.94 1.22 4.11 4.11 0 0 1-1.44.75 6.38 6.38 0 0 1-1.86.26 8 8 0 0 1-2.84-.51 7.85 7.85 0 0 1-2.52-1.55l1.36-1.6a7.86 7.86 0 0 0 1.89 1.24 5.19 5.19 0 0 0 2.17.43 2.75 2.75 0 0 0 1.66-.44 1.38 1.38 0 0 0 .61-1.19 1.52 1.52 0 0 0-.11-.62 1.19 1.19 0 0 0-.45-.51 3.79 3.79 0 0 0-.88-.43c-.37-.13-.86-.27-1.46-.42a16.46 16.46 0 0 1-1.83-.53 4.55 4.55 0 0 1-1.35-.74 3.06 3.06 0 0 1-.83-1.06 3.7 3.7 0 0 1-.28-1.53 3.5 3.5 0 0 1 .33-1.53 3.6 3.6 0 0 1 .9-1.18 4 4 0 0 1 1.38-.77 5.75 5.75 0 0 1 1.76-.26 7.48 7.48 0 0 1 2.54.41A7.86 7.86 0 0 1 184 73.1l-1.21 1.71a8.1 8.1 0 0 0-1.74-1 4.69 4.69 0 0 0-1.75-.34 2.37 2.37 0 0 0-1.54.45 1.35 1.35 0 0 0-.55 1.09 1.47 1.47 0 0 0 .08.68zm18.88 6a5.26 5.26 0 0 1-8.48 1.63 4.91 4.91 0 0 1-1.46-3.56 5 5 0 0 1 .39-2 5.11 5.11 0 0 1 4.78-3.11 5.37 5.37 0 0 1 2.07.39 5.12 5.12 0 0 1 1.63 1.09 4.91 4.91 0 0 1 1.08 1.6 5.16 5.16 0 0 1 .38 2 5 5 0 0 1-.39 1.91zm-2.07-3.19a3.09 3.09 0 0 0-.61-1 2.87 2.87 0 0 0-.93-.68 3 3 0 0 0-2.39 0 2.82 2.82 0 0 0-1.5 1.65 3.45 3.45 0 0 0-.2 1.21 3.6 3.6 0 0 0 .21 1.22 3 3 0 0 0 1.55 1.67 2.85 2.85 0 0 0 1.17.24 3 3 0 0 0 1.22-.24 2.82 2.82 0 0 0 1.5-1.65 3.45 3.45 0 0 0 .2-1.21 3.25 3.25 0 0 0-.22-1.21zm4.85 6V71.12h2.24v13.4zm11.47-9.69h2.24v9.69h-2.24V83a4.56 4.56 0 0 1-1.19 1.21 3 3 0 0 1-1.83.51 3.19 3.19 0 0 1-2.54-1A3.91 3.91 0 0 1 204 81v-6.17h2.24v5.49a2.56 2.56 0 0 0 .54 1.75 1.9 1.9 0 0 0 1.52.62 2 2 0 0 0 1.56-.64 2.45 2.45 0 0 0 .6-1.76zm7.73 6.66a1.2 1.2 0 0 0 .31.93 1.26 1.26 0 0 0 .88.28 2.92 2.92 0 0 0 1.38-.33v1.82a4 4 0 0 1-.9.37 4.49 4.49 0 0 1-1.1.13 4.06 4.06 0 0 1-1.13-.15 2.32 2.32 0 0 1-.89-.48 2.1 2.1 0 0 1-.59-.87 4 4 0 0 1-.2-1.35v-5.1h-1.23v-1.89h1.23v-2.66h2.24v2.66h2.61v1.89h-2.61zm4.85-8.13v-2.11h2.41v2.11zm.1 11.18v-9.69h2.24v9.69zm14.52-2.88a5.06 5.06 0 0 1-1.08 1.61 5.22 5.22 0 0 1-1.64 1.09 5.31 5.31 0 0 1-5.76-1.07 5.11 5.11 0 0 1-1.07-1.6 4.93 4.93 0 0 1-.38-2 5 5 0 0 1 3.12-4.67 5.15 5.15 0 0 1 2.06-.4 5.37 5.37 0 0 1 2.07.39 5.12 5.12 0 0 1 1.63 1.09 4.74 4.74 0 0 1 1.07 1.6 5 5 0 0 1 .39 2 4.81 4.81 0 0 1-.4 1.96zm-2.06-3.14a3.27 3.27 0 0 0-.61-1 2.87 2.87 0 0 0-.93-.68 3 3 0 0 0-2.39 0 2.84 2.84 0 0 0-.92.67 3 3 0 0 0-.59 1 3.7 3.7 0 0 0-.2 1.21 3.61 3.61 0 0 0 .22 1.22 3.16 3.16 0 0 0 .61 1 3.11 3.11 0 0 0 .93.67 3.09 3.09 0 0 0 2.39 0 2.84 2.84 0 0 0 .92-.67 2.79 2.79 0 0 0 .59-1 3.7 3.7 0 0 0 .2-1.21 3.25 3.25 0 0 0-.21-1.21zm7 6h-2.24v-9.67h2.24v1.52a6.55 6.55 0 0 1 .52-.66 3.53 3.53 0 0 1 .66-.54 3.26 3.26 0 0 1 1.84-.52 3.18 3.18 0 0 1 2.54 1 3.92 3.92 0 0 1 .9 2.71v6.17h-2.24V79a2.56 2.56 0 0 0-.54-1.75 1.9 1.9 0 0 0-1.52-.61 2.06 2.06 0 0 0-1.56.63 2.45 2.45 0 0 0-.6 1.76zm15.75-1.5a2.49 2.49 0 0 1-.76.94 3.35 3.35 0 0 1-1.15.57 5 5 0 0 1-1.41.2 6.67 6.67 0 0 1-2.12-.37 7.13 7.13 0 0 1-2-1.08l1-1.51a6.44 6.44 0 0 0 1.61.89 4.49 4.49 0 0 0 1.57.3 1.9 1.9 0 0 0 1.11-.28.89.89 0 0 0 .39-.76.76.76 0 0 0-.17-.48 1.88 1.88 0 0 0-.48-.36 4.27 4.27 0 0 0-.7-.27l-.81-.25c-.36-.11-.72-.23-1.08-.37a3.61 3.61 0 0 1-1-.52 2.69 2.69 0 0 1-.71-.79 2.29 2.29 0 0 1-.27-1.16 2.91 2.91 0 0 1 .26-1.23 2.84 2.84 0 0 1 .74-.94 3.3 3.3 0 0 1 1.1-.58 4.24 4.24 0 0 1 1.35-.21 6 6 0 0 1 1.85.3 6.12 6.12 0 0 1 1.71.81l-.88 1.57a7.94 7.94 0 0 0-1.42-.67 4.11 4.11 0 0 0-1.32-.24 1.63 1.63 0 0 0-1 .27.86.86 0 0 0-.36.7.65.65 0 0 0 .19.45 2.13 2.13 0 0 0 .48.35 6.74 6.74 0 0 0 .7.29l.82.26c.35.12.71.24 1.06.39a4.77 4.77 0 0 1 1 .54 2.89 2.89 0 0 1 .7.78 2.09 2.09 0 0 1 .28 1.12 3 3 0 0 1-.28 1.34z" fill="url(#svgcid-qp7z7u-k5j4ws)"></path>
        </g>
    </g>
</svg>